<?xml version="1.0" standalone="no"?>
<!DOCTYPE svg PUBLIC "-//W3C//DTD SVG 20010904//EN"
 "http://www.w3.org/TR/2001/REC-SVG-20010904/DTD/svg10.dtd">
<svg version="1.0" xmlns="http://www.w3.org/2000/svg"
 width="270.000000pt" height="270.000000pt" viewBox="0 0 270.000000 270.000000"
 preserveAspectRatio="xMidYMid meet">
<metadata>
Created by potrace 1.11, written by Peter Selinger 2001-2013
</metadata>
<g transform="translate(0.000000,270.000000) scale(0.100000,-0.100000)"
fill="#000000" stroke="none">
<path d="M1095 2579 c-123 -16 -328 -82 -425 -137 -78 -45 -183 -127 -246
-194 -79 -82 -142 -180 -214 -332 -107 -224 -152 -413 -153 -636 -1 -80 4
-163 10 -185 10 -41 15 -38 28 20 6 25 11 13 37 -85 33 -129 33 -195 2 -370
-21 -121 -14 -214 21 -285 14 -29 32 -58 40 -65 13 -11 15 -3 16 56 1 82 22
161 34 129 42 -111 99 -175 197 -224 75 -38 103 -41 94 -8 -12 39 -19 147 -10
147 5 0 18 -16 29 -36 11 -20 36 -50 56 -68 29 -24 35 -35 28 -51 -4 -11 -8
-28 -8 -38 -1 -15 5 -13 36 12 23 19 49 31 66 31 l29 0 -37 -67 c-20 -38 -59
-91 -86 -118 -27 -28 -49 -56 -49 -63 0 -8 18 -12 53 -12 47 0 57 4 84 32 24
25 93 162 93 185 0 5 182 94 185 91 1 -2 12 -22 24 -46 25 -49 27 -44 -46
-124 -37 -41 -43 -53 -43 -93 l0 -45 425 0 c375 0 425 2 425 15 0 31 -30 87
-75 140 l-46 54 13 46 13 46 63 -41 c38 -25 72 -57 88 -83 14 -23 37 -58 50
-78 13 -19 24 -49 24 -67 0 -31 2 -32 41 -32 l41 0 -5 53 c-3 28 -6 61 -8 72
-3 15 1 20 16 20 15 0 21 -8 23 -30 4 -30 22 -61 22 -36 0 8 7 10 19 6 34 -11
71 5 71 30 0 30 27 41 35 14 8 -25 21 -24 29 3 5 22 6 22 19 4 10 -14 19 -17
33 -11 18 9 28 11 48 14 14 2 -31 41 -47 41 -7 0 -18 -5 -25 -12 -7 -7 -12 -8
-12 -4 0 5 -7 3 -16 -5 -13 -10 -17 -10 -24 1 -5 7 -15 10 -25 6 -11 -4 -23 0
-31 11 -12 17 -13 16 -14 -8 0 -23 -4 -26 -25 -21 -15 2 -25 0 -25 -7 0 -7 -4
-9 -10 -6 -18 11 -11 32 16 43 14 7 22 16 19 22 -3 5 -29 -1 -63 -16 -68 -30
-87 -25 -120 34 l-22 40 25 6 c40 10 106 76 130 130 l22 49 12 -61 c7 -34 17
-62 22 -62 22 0 77 35 123 79 33 31 46 40 43 26 -25 -86 -21 -91 35 -45 46 38
85 116 102 206 l13 69 11 -53 c14 -64 15 -97 3 -140 -14 -47 4 -41 65 21 76
79 98 143 98 282 0 84 -5 128 -22 188 -28 97 -28 99 3 91 17 -4 25 -2 25 7 0
8 -27 69 -60 137 -39 82 -55 124 -47 127 7 2 30 9 52 14 44 12 105 46 105 59
0 5 -49 23 -109 41 -88 27 -110 38 -115 55 -10 36 -7 49 9 42 50 -19 177 -37
202 -28 27 9 26 10 -41 43 -45 22 -92 56 -131 95 -59 59 -62 64 -88 164 -48
184 -198 418 -364 570 -79 72 -123 98 -233 138 -76 27 -114 35 -188 38 -55 2
-121 12 -159 24 -71 22 -198 25 -328 9z m-29 -704 c13 -44 43 -120 67 -168
l44 -89 -56 7 c-61 7 -163 30 -197 44 -21 9 -20 13 40 179 56 157 62 168 69
139 5 -18 20 -68 33 -112z m604 -117 l63 -68 -38 -15 c-58 -25 -66 -19 -91 75
-27 100 -28 109 -11 90 7 -8 42 -45 77 -82z m-580 -172 c30 0 65 4 76 8 19 7
28 -2 70 -66 79 -118 248 -278 271 -255 2 2 -12 69 -31 148 -19 79 -34 145
-32 146 1 1 22 -28 46 -65 47 -70 118 -132 151 -132 16 0 19 7 19 43 0 34 6
49 28 69 45 42 74 56 128 64 62 8 121 -15 183 -72 50 -44 72 -85 106 -191 13
-43 43 -107 65 -143 81 -132 85 -145 85 -260 0 -89 -4 -113 -24 -158 -44 -98
-177 -196 -368 -271 -102 -41 -329 -111 -356 -111 -9 0 -19 -5 -22 -11 -4 -6
-1 -9 6 -7 21 4 22 -8 10 -58 -11 -43 -13 -45 -41 -39 -26 6 -31 3 -52 -37
l-23 -43 -3 40 c-4 46 -14 55 -64 55 -41 0 -36 -10 -53 105 -3 19 -13 41 -21
50 -19 18 -87 20 -167 4 -62 -13 -77 -9 -218 53 l-66 29 -6 97 c-8 121 -25
185 -83 320 -52 122 -74 204 -74 279 0 43 3 51 15 47 10 -4 15 -20 15 -48 0
-22 5 -59 12 -81 l11 -40 13 75 c28 158 81 238 193 287 49 22 66 24 136 20 44
-3 94 -9 110 -13 27 -6 29 -6 17 9 -24 28 -118 57 -185 57 -67 0 -126 -22
-184 -66 -40 -31 -41 -25 -4 29 15 23 47 77 70 119 l42 77 72 -31 c51 -22 88
-31 127 -32z m708 45 c12 -11 22 -21 22 -24 0 -2 -18 -9 -41 -16 -23 -7 -61
-31 -85 -53 -37 -34 -44 -37 -44 -21 0 11 -3 41 -6 67 l-7 46 44 1 c24 0 53 4
64 9 27 12 27 12 53 -9z m-1119 -248 c-5 -21 -9 -46 -9 -57 0 -15 3 -16 15 -6
19 16 19 9 -2 -35 -21 -44 -47 -43 -51 2 -3 27 39 133 52 133 2 0 0 -17 -5
-37z m557 -1028 c3 -14 9 -49 13 -78 l6 -52 42 -6 c24 -3 44 -7 46 -10 8 -8
18 -109 11 -109 -11 0 -102 76 -130 109 -25 30 -26 34 -14 70 23 72 3 66 -34
-9 -21 -41 -42 -79 -47 -85 -13 -13 -37 18 -84 107 l-36 67 23 5 c13 3 32 7
43 9 11 3 50 5 87 6 64 1 68 0 74 -24z m421 -66 c-3 -34 -12 -68 -19 -76 -13
-12 -19 -6 -48 39 -18 29 -35 48 -37 41 -2 -7 0 -21 6 -32 16 -30 14 -35 -31
-79 -46 -45 -103 -80 -114 -69 -4 3 0 24 8 44 13 35 17 38 50 35 34 -2 37 0
43 30 17 77 35 106 73 116 74 20 75 19 69 -49z m203 27 c0 -8 -4 -17 -9 -21
-12 -7 -24 12 -16 25 9 15 25 12 25 -4z m400 -166 c0 -5 -4 -10 -10 -10 -5 0
-10 5 -10 10 0 6 5 10 10 10 6 0 10 -4 10 -10z m-1040 -64 c-22 -10 -40 4 -40
32 0 10 8 8 30 -5 30 -17 30 -18 10 -27z m389 2 c1 -5 -10 -8 -24 -8 -29 0
-31 7 -8 32 17 19 18 19 24 1 4 -10 8 -21 8 -25z m506 22 c-3 -5 -13 -10 -21
-10 -8 0 -14 5 -14 10 0 6 9 10 21 10 11 0 17 -4 14 -10z"/>
<path d="M1765 1480 c-3 -5 1 -19 9 -31 17 -25 12 -45 -16 -60 -24 -13 -48 4
-48 35 0 20 -1 20 -20 -4 -44 -56 -35 -187 17 -259 34 -48 96 -88 148 -96 34
-5 47 -1 89 27 55 37 74 74 75 148 2 103 -52 207 -122 234 -47 18 -122 21
-132 6z m185 -279 c-17 -32 -52 -51 -98 -53 -34 -1 -48 4 -72 27 -30 28 -39
55 -20 55 6 0 10 -9 10 -20 0 -22 20 -26 38 -8 9 9 13 7 18 -5 8 -21 30 -22
38 -2 4 11 14 13 37 8 29 -6 32 -4 27 15 -4 14 -1 22 11 24 20 4 26 -15 11
-41z"/>
<path d="M983 1401 c-23 -4 -51 -16 -63 -26 -18 -16 -19 -20 -5 -35 35 -38 5
-87 -37 -61 -28 17 -44 1 -58 -60 -22 -92 10 -187 75 -218 43 -21 182 -20 223
2 96 52 122 220 49 327 -39 59 -104 84 -184 71z m181 -257 c14 -55 -64 -134
-133 -134 -64 0 -110 18 -126 50 -19 37 -19 50 0 50 8 0 15 -7 15 -16 0 -13 7
-15 31 -10 23 4 35 2 44 -11 13 -18 35 -10 35 13 0 10 10 13 33 12 25 -2 32 1
31 15 -1 10 5 17 17 17 12 0 19 7 19 20 0 29 27 25 34 -6z"/>
<path d="M2023 1047 c-49 -72 -92 -190 -63 -172 18 11 91 166 88 186 -3 16 -7
14 -25 -14z"/>
<path d="M1600 1060 c0 -5 5 -10 11 -10 5 0 7 5 4 10 -3 6 -8 10 -11 10 -2 0
-4 -4 -4 -10z"/>
<path d="M2081 1047 c-20 -24 -78 -162 -74 -174 9 -26 52 45 93 151 10 28 -2
43 -19 23z"/>
<path d="M2140 1044 c-17 -21 -54 -94 -69 -136 -9 -23 -8 -28 4 -28 18 0 87
135 83 162 -3 20 -3 20 -18 2z"/>
<path d="M1943 1017 c-18 -20 -43 -77 -43 -98 0 -5 6 -6 14 -3 15 6 62 111 54
119 -3 3 -14 -5 -25 -18z"/>
<path d="M2203 1032 c-16 -10 -63 -120 -63 -150 0 -24 1 -24 23 9 26 39 60
124 55 139 -2 5 -8 6 -15 2z"/>
<path d="M822 911 c-42 -64 -54 -99 -44 -118 7 -12 19 3 51 62 39 74 50 105
33 105 -4 0 -22 -22 -40 -49z"/>
<path d="M865 870 c-26 -44 -49 -94 -51 -112 l-5 -33 21 25 c31 38 100 163
100 183 0 34 -19 16 -65 -63z"/>
<path d="M935 866 c-78 -120 -95 -176 -33 -108 25 27 118 173 118 185 0 4 -7
7 -15 7 -9 0 -40 -38 -70 -84z"/>
<path d="M1017 913 c-59 -95 -79 -134 -73 -149 3 -8 10 -13 15 -10 15 10 101
162 101 179 0 28 -18 19 -43 -20z"/>
<path d="M1108 928 c-9 -7 -33 -43 -53 -80 -29 -53 -33 -68 -21 -68 18 0 82
92 92 133 7 30 5 32 -18 15z"/>
<path d="M1790 868 c-15 -6 -68 -8 -132 -5 -59 3 -110 2 -113 -3 -15 -25 -270
-39 -315 -17 -11 5 -15 0 -16 -20 -1 -16 -5 -62 -9 -104 -9 -94 10 -163 63
-221 42 -47 64 -56 151 -69 167 -24 343 56 406 185 24 48 26 63 24 160 -2 115
-3 118 -59 94z"/>
</g>
</svg>
